<svg xmlns="http://www.w3.org/2000/svg" width="682.667" height="682.667" version="1.0" viewBox="0 0 512 512"><path d="M147.5 2c-11.2 3.8-20.7 13-24.1 23.6-.9 2.7-5.3 24.6-9.8 48.5l-8.1 43.4-37.5.5-37.5.5-6.7 3.3C13.1 127 5.5 137 3 148.8c-.7 3.1-1 61.4-.8 169.2l.3 164.5 3.2 6.7c4 8.5 10.6 15.1 19.1 19.1l6.7 3.2h335l5.8-2.3c8.1-3.3 16.6-11.4 20.3-19.4 2.8-6.2 2.9-6.7 3.2-25.6l.3-19.2 4.2.7c2.3.5 8.5.8 13.7.8 8.4 0 10.2-.4 15.3-2.9 7.3-3.5 14.8-10.9 18-17.8 3.8-8.1 63.2-325 62.3-332.5-1-8.5-4.3-15.8-9.8-21.9-9.8-10.7 1.5-8-174.1-41C239.3 14.2 165.1.7 161 .4c-5.8-.3-8.9 0-13.5 1.6m171 52.5c78.1 14.6 143.9 27.2 146.3 28 8.9 2.9 16 11.6 17.7 21.6.5 2.6-5.7 37.7-22 125-12.5 66.8-23 121.7-23.4 122.1-.3.4-9.6-11.7-20.6-26.7l-20-27.4-.5-75.8-.5-75.8-2.8-5.8c-3.7-7.4-11-14.7-18.4-18.4l-5.8-2.8-118.7-.3c-65.4-.1-118.8-.6-118.8-1.1 0-3.7 13.4-71 14.6-73.5 5-9.9 17.9-17.3 27.9-16 1.7.2 66.9 12.3 145 26.9m37.1 90.4c5.4 2.5 11.1 8.3 13.8 14l2.1 4.6.3 124.8c.1 79.6-.1 124.8-.7 124.5-.8-.2-79.3-73.5-112.8-105.1l-7.2-6.9-21.5 13.1c-11.7 7.2-21.8 13.1-22.2 13.1-.5 0-15.8-14.9-33.9-33-18.1-18.2-33.3-33-33.8-33-.4 0-25.7 16.4-56.3 36.5-30.5 20.1-55.7 36.5-56 36.5-.2 0-.3-38.4-.2-85.3l.3-85.2 2.7-5c2.4-4.5 5.2-7.8 10-11.4 5.4-4.1 2.8-4 160.3-4 145.2-.1 151.2 0 155.1 1.8"/><path d="M283 171c-33.1 6.2-48.6 42.9-30 70.8 17.6 26.3 57.4 26.4 74.9.2 19.8-29.7 1.3-68.5-34-71.3-3.5-.3-8.4-.2-10.9.3"/></svg>